<svg width="863" height="600" viewBox="0 0 863 600" fill="none" xmlns="http://www.w3.org/2000/svg">
<g clip-path="url(#clip0_259_1054)">
<rect width="863" height="600" fill="white"/>
<rect width="863" height="600" fill="#EBAEF2" fill-opacity="0.2"/>
<path d="M845.938 95.5625V362.438C845.938 371.875 842.189 380.926 835.515 387.599C828.842 394.272 819.791 398.021 810.354 398.021H312.188L223.229 504.771V398.021H187.646C178.209 398.021 169.158 394.272 162.485 387.599C155.811 380.926 152.063 371.875 152.063 362.438V95.5625C152.063 86.1252 155.811 77.0745 162.485 70.4013C169.158 63.7281 178.209 59.9792 187.646 59.9792H810.354C819.791 59.9792 828.842 63.7281 835.515 70.4013C842.189 77.0745 845.938 86.1252 845.938 95.5625V95.5625Z" stroke="#88658C" stroke-width="10" stroke-linecap="round" stroke-linejoin="round"/>
<path d="M433.162 242.131V246.017H418.064V242.131H433.162ZM419.451 217.58V246.017H414.549V217.58H419.451ZM431.189 229.455V233.283H418.064V229.455H431.189ZM433.064 217.58V221.486H418.064V217.58H433.064ZM441.424 228.908V246.017H436.717V224.884H441.209L441.424 228.908ZM447.888 224.748L447.849 229.123C447.563 229.071 447.25 229.032 446.912 229.006C446.586 228.979 446.261 228.966 445.935 228.966C445.128 228.966 444.418 229.084 443.806 229.318C443.194 229.539 442.68 229.865 442.263 230.295C441.86 230.711 441.547 231.219 441.326 231.818C441.105 232.417 440.974 233.088 440.935 233.83L439.861 233.908C439.861 232.58 439.991 231.349 440.252 230.216C440.512 229.084 440.903 228.088 441.424 227.228C441.957 226.369 442.622 225.698 443.416 225.216C444.223 224.735 445.154 224.494 446.209 224.494C446.495 224.494 446.801 224.52 447.127 224.572C447.465 224.624 447.719 224.683 447.888 224.748ZM455.564 228.908V246.017H450.857V224.884H455.349L455.564 228.908ZM462.029 224.748L461.99 229.123C461.704 229.071 461.391 229.032 461.052 229.006C460.727 228.979 460.401 228.966 460.076 228.966C459.269 228.966 458.559 229.084 457.947 229.318C457.335 229.539 456.821 229.865 456.404 230.295C456 230.711 455.688 231.219 455.467 231.818C455.245 232.417 455.115 233.088 455.076 233.83L454.002 233.908C454.002 232.58 454.132 231.349 454.392 230.216C454.653 229.084 455.043 228.088 455.564 227.228C456.098 226.369 456.762 225.698 457.556 225.216C458.364 224.735 459.295 224.494 460.349 224.494C460.636 224.494 460.942 224.52 461.267 224.572C461.606 224.624 461.86 224.683 462.029 224.748ZM463.572 235.685V235.236C463.572 233.713 463.793 232.3 464.236 230.998C464.679 229.683 465.317 228.543 466.15 227.58C466.997 226.603 468.025 225.848 469.236 225.314C470.46 224.767 471.84 224.494 473.377 224.494C474.926 224.494 476.306 224.767 477.517 225.314C478.741 225.848 479.776 226.603 480.623 227.58C481.469 228.543 482.114 229.683 482.556 230.998C482.999 232.3 483.22 233.713 483.22 235.236V235.685C483.22 237.209 482.999 238.621 482.556 239.923C482.114 241.226 481.469 242.365 480.623 243.341C479.776 244.305 478.748 245.06 477.537 245.607C476.326 246.141 474.952 246.408 473.416 246.408C471.866 246.408 470.48 246.141 469.256 245.607C468.045 245.06 467.016 244.305 466.17 243.341C465.323 242.365 464.679 241.226 464.236 239.923C463.793 238.621 463.572 237.209 463.572 235.685ZM468.279 235.236V235.685C468.279 236.636 468.377 237.534 468.572 238.381C468.767 239.227 469.073 239.969 469.49 240.607C469.907 241.245 470.441 241.746 471.092 242.111C471.743 242.476 472.517 242.658 473.416 242.658C474.288 242.658 475.043 242.476 475.681 242.111C476.332 241.746 476.866 241.245 477.283 240.607C477.7 239.969 478.006 239.227 478.201 238.381C478.409 237.534 478.513 236.636 478.513 235.685V235.236C478.513 234.298 478.409 233.413 478.201 232.58C478.006 231.733 477.693 230.985 477.263 230.334C476.847 229.683 476.313 229.175 475.662 228.81C475.024 228.433 474.262 228.244 473.377 228.244C472.491 228.244 471.723 228.433 471.072 228.81C470.434 229.175 469.907 229.683 469.49 230.334C469.073 230.985 468.767 231.733 468.572 232.58C468.377 233.413 468.279 234.298 468.279 235.236ZM491.892 228.908V246.017H487.185V224.884H491.677L491.892 228.908ZM498.357 224.748L498.318 229.123C498.032 229.071 497.719 229.032 497.381 229.006C497.055 228.979 496.73 228.966 496.404 228.966C495.597 228.966 494.887 229.084 494.275 229.318C493.663 229.539 493.149 229.865 492.732 230.295C492.329 230.711 492.016 231.219 491.795 231.818C491.573 232.417 491.443 233.088 491.404 233.83L490.33 233.908C490.33 232.58 490.46 231.349 490.72 230.216C490.981 229.084 491.372 228.088 491.892 227.228C492.426 226.369 493.09 225.698 493.885 225.216C494.692 224.735 495.623 224.494 496.677 224.494C496.964 224.494 497.27 224.52 497.595 224.572C497.934 224.624 498.188 224.683 498.357 224.748ZM522.498 217.58V246.017H517.635V217.58H522.498ZM531.424 217.58V221.486H508.787V217.58H531.424ZM542.146 246.408C540.584 246.408 539.171 246.154 537.908 245.646C536.658 245.125 535.59 244.403 534.705 243.478C533.832 242.554 533.162 241.466 532.693 240.216C532.224 238.966 531.99 237.619 531.99 236.173V235.392C531.99 233.739 532.231 232.241 532.713 230.9C533.194 229.559 533.865 228.413 534.724 227.463C535.584 226.499 536.599 225.763 537.771 225.256C538.943 224.748 540.213 224.494 541.58 224.494C543.09 224.494 544.412 224.748 545.545 225.256C546.677 225.763 547.615 226.479 548.357 227.404C549.112 228.315 549.672 229.403 550.037 230.666C550.414 231.929 550.603 233.322 550.603 234.845V236.857H534.275V233.478H545.955V233.107C545.929 232.261 545.76 231.466 545.447 230.724C545.148 229.982 544.685 229.383 544.06 228.927C543.435 228.472 542.602 228.244 541.56 228.244C540.779 228.244 540.082 228.413 539.47 228.752C538.872 229.077 538.37 229.552 537.967 230.177C537.563 230.802 537.25 231.558 537.029 232.443C536.821 233.315 536.717 234.298 536.717 235.392V236.173C536.717 237.098 536.84 237.957 537.088 238.752C537.348 239.533 537.726 240.216 538.22 240.802C538.715 241.388 539.314 241.851 540.017 242.189C540.72 242.515 541.521 242.677 542.42 242.677C543.552 242.677 544.562 242.45 545.447 241.994C546.332 241.538 547.101 240.894 547.752 240.06L550.232 242.463C549.776 243.127 549.184 243.765 548.455 244.377C547.726 244.976 546.834 245.464 545.779 245.841C544.737 246.219 543.526 246.408 542.146 246.408ZM557.869 224.884L561.892 231.896L565.994 224.884H571.17L564.763 235.256L571.424 246.017H566.248L561.951 238.713L557.654 246.017H552.459L559.099 235.256L552.713 224.884H557.869ZM584.08 224.884V228.322H572.166V224.884H584.08ZM575.603 219.709H580.31V240.177C580.31 240.828 580.401 241.33 580.584 241.681C580.779 242.02 581.046 242.248 581.385 242.365C581.723 242.482 582.12 242.541 582.576 242.541C582.901 242.541 583.214 242.521 583.513 242.482C583.813 242.443 584.054 242.404 584.236 242.365L584.256 245.959C583.865 246.076 583.409 246.18 582.888 246.271C582.381 246.362 581.795 246.408 581.131 246.408C580.05 246.408 579.093 246.219 578.26 245.841C577.426 245.451 576.775 244.819 576.306 243.947C575.838 243.075 575.603 241.916 575.603 240.47V219.709Z" fill="black"/>
<path d="M29.8999 535.524C29.2958 532 29.0877 527.794 29.6571 522.883L31.3394 508.282L32.4292 509.473C32.6427 506.582 33.1404 503.719 33.915 500.926C30.8654 483.05 31.166 459.806 34.9094 431.392L35.3806 427.781L38.9591 428.255C59.6242 431.027 79.1186 439.89 93.8608 449.97C100.544 448.524 107.742 447.755 115.5 447.755C123.253 447.755 130.456 448.524 137.139 449.97C151.881 439.893 171.37 431.027 192.035 428.255L195.617 427.781L196.094 431.395C199.837 459.809 200.135 483.053 197.088 500.929C197.86 503.723 198.357 506.585 198.574 509.476L199.661 508.285L201.343 522.883C201.909 527.794 201.701 532 201.097 535.524L202.219 535.281V543.638C202.219 559.389 191.009 574.397 170.653 585.884C153.899 595.342 132.766 601.219 115.5 601.219C106.421 601.219 96.286 599.56 86.27 596.646C82.4961 599.608 77.8373 601.218 73.0396 601.219C61.3644 601.219 51.8571 591.87 51.4119 580.172C36.7536 569.621 28.7812 556.9 28.7812 543.638V535.281L29.8999 535.524ZM41.6041 436.04C39.2655 455.049 38.5891 471.771 39.4881 485.831C39.5719 483.839 39.9159 481.85 40.6791 479.992L39.4563 479.812L44.3184 471.412C43.3413 465.715 42.6071 455.809 45.8591 444.029C57.1123 448.709 65.8044 456.861 69.0563 460.194C73.7247 457.043 78.8902 454.496 84.5154 452.539C72.3256 445.079 57.4158 438.74 41.6041 436.04ZM189.396 436.04C173.581 438.74 158.669 445.079 146.479 452.537C152.107 454.496 157.27 457.043 161.938 460.191C165.193 456.861 173.885 448.706 185.138 444.027C188.387 455.803 187.653 465.706 186.676 471.409L191.541 479.812L190.321 479.995C191.084 481.853 191.431 483.839 191.512 485.834C192.411 471.774 191.732 455.051 189.396 436.04ZM52.0132 572.177C53.8083 561.444 59.4045 549.242 67.8654 536.417C66.2763 536.195 64.7128 535.818 63.197 535.292C62.0119 534.867 60.8441 534.327 59.7138 533.633C59.1444 533.275 58.6009 532.876 58.0488 532.358C57.9014 532.22 57.7829 532.095 57.6095 531.899L57.332 531.54L57.147 531.245L56.7018 530.381C55.6005 528.126 54.7882 525.831 54.1552 523.446C52.9584 518.689 52.6318 513.552 53.895 508.56C55.3172 503.53 58.2078 499.29 61.9685 495.893C65.735 492.569 70.9844 490.331 76.1904 490.95C77.4731 491.079 78.7391 491.34 79.9684 491.728C81.1617 492.09 82.3152 492.572 83.4112 493.167C85.6146 494.349 87.5635 495.954 89.1462 497.89C92.1226 501.695 93.8537 506.325 94.1036 511.15C92.9358 506.643 90.8285 502.368 87.5823 499.316C86.0313 497.778 84.1966 496.555 82.1798 495.717C81.1743 495.297 80.1359 494.962 79.0752 494.714C78.056 494.478 77.0162 494.344 75.9707 494.312C71.7764 494.193 67.7845 495.983 64.7088 498.937C61.6419 501.851 59.1068 505.669 58.0864 509.67C56.9793 513.737 57.1816 518.2 58.1471 522.49C58.6096 524.637 59.2831 526.788 60.1387 528.771L60.4654 529.471L60.5116 529.551C60.5174 529.549 60.5116 529.534 60.5059 529.531L60.6648 529.713C60.9971 530.043 61.3558 530.344 61.7373 530.615C62.5858 531.221 63.4955 531.737 64.4516 532.153C66.105 532.873 67.8856 533.35 69.7009 533.7C70.7519 532.166 71.8244 530.647 72.9182 529.144C69.8876 527.805 67.4096 525.465 65.9 522.515C64.3904 519.566 63.941 516.187 64.6273 512.946C65.3136 509.704 67.0938 506.798 69.6692 504.713C72.2446 502.629 75.4585 501.494 78.7717 501.498C81.6952 501.502 84.5485 502.394 86.9539 504.056C89.3592 505.717 91.2033 508.07 92.242 510.803C91.5656 509.956 90.6059 509.418 89.5306 509.418C87.4869 509.418 85.8335 511.332 85.8335 513.694C85.8335 516.055 87.4869 517.969 89.5306 517.969C91.265 517.969 92.6987 516.587 93.1034 514.731C93.1381 515.142 93.222 515.532 93.222 515.951C93.2225 518.788 92.3883 521.562 90.8231 523.928C89.2579 526.294 87.031 528.147 84.42 529.257C84.8733 528.226 85.1094 527.113 85.1137 525.987C85.1137 521.952 82.2896 518.683 78.7948 518.683C75.3059 518.683 72.4759 521.955 72.4759 525.987C72.4759 527.092 72.7245 528.115 73.109 529.054C74.3728 530.788 75.6073 532.543 76.8119 534.318C77.0431 534.315 77.2744 534.333 77.5056 534.327C82.0844 534.309 86.6631 533.431 91.2361 532.433C87.0718 534.296 82.684 535.611 78.182 536.347C84.7148 546.213 89.4728 555.582 92.1611 564.219C107.646 557.171 125.814 557.247 141.247 564.456C145.114 566.32 140.293 576.452 136.443 574.573C126.117 569.763 110.73 567.91 96.3352 574.602C95.7137 574.891 95.0604 574.85 94.4216 574.611C94.6037 576.218 94.7106 577.799 94.7106 579.334C94.7106 583.652 93.4561 587.667 91.3228 591.058C99.7345 593.252 108.068 594.455 115.494 594.455C147.19 594.455 195.541 572.781 195.541 543.649L190.2 544.8C190.2 544.8 196.38 538.125 194.715 523.684L189.523 529.375C189.523 529.375 194.715 514.72 190.2 501.197L184.45 505.499C184.45 505.499 186.196 499.995 184.592 496.228L182.109 498.206C182.109 498.206 187.994 485.227 182.522 480.252C180.305 487.687 177.686 487.799 177.536 487.799H177.527C177.527 487.799 180.84 482.064 178.261 479.659C177.206 481.388 176.223 481.975 175.431 481.975C174.243 481.975 173.48 480.654 173.544 479.873C173.685 478.15 173.023 475.716 180.759 474.572C179.692 472.73 177.31 472.184 174.836 472.184C171.15 472.184 167.265 473.41 167.265 473.41C167.265 473.41 167.514 469.531 172.625 469.531L172.934 469.536C171.327 467.126 168.974 466.42 166.777 466.42C163.724 466.42 160.978 467.776 160.978 467.776L160.996 467.828C158.924 466.262 156.747 464.841 154.48 463.576C152.688 467.675 150.266 469.542 147.303 475.02C143.068 467.201 139.969 462.657 138.229 457.173C135.589 456.503 132.917 455.97 130.222 455.575C127.982 465.663 122.836 473.47 115.497 487.016C108.048 473.268 102.972 465.579 100.766 455.569C97.9655 455.976 95.3119 456.529 92.7566 457.173C91.002 462.717 87.8772 467.302 83.6945 475.02C80.7027 469.487 78.2803 467.634 76.5026 463.576C74.2161 464.88 72.0134 466.27 69.9871 467.828L70.0045 467.776C70.0045 467.776 67.2612 466.42 64.2059 466.42C62.009 466.42 59.656 467.126 58.0517 469.536L58.361 469.531C63.4716 469.531 63.7202 473.41 63.7202 473.41C63.7202 473.41 59.8352 472.178 56.1497 472.184C53.6782 472.184 51.2934 472.73 50.2268 474.572C57.9621 475.716 57.3002 478.15 57.4418 479.873C57.5025 480.654 56.7423 481.975 55.5571 481.975C54.7622 481.975 53.7794 481.388 52.7243 479.659C50.143 482.064 53.4585 487.799 53.4585 487.799H53.4527C53.2995 487.799 50.6806 487.687 48.4664 480.252C42.9887 485.227 48.8798 498.206 48.8798 498.206L46.3967 496.228C44.7867 499.995 46.5384 505.499 46.5384 505.499L40.7918 501.197C36.2737 514.72 41.4682 529.375 41.4682 529.375L36.2737 523.684C34.6087 538.125 40.7918 544.8 40.7918 544.8L35.4441 543.649C35.4499 554.414 42.0781 564.164 52.0132 572.177Z" fill="#88658C"/>
<path d="M116.359 531.118C118.503 531.118 125.701 531.326 128.045 534.061C129.71 536.009 128.424 540.836 123.981 545.002C121.18 547.632 118.503 548.462 116.359 548.462C114.208 548.462 111.531 547.632 108.73 545.002C104.293 540.836 103.001 536.009 104.672 534.061C107.013 531.326 114.208 531.118 116.359 531.118ZM149.309 493.164C150.405 492.57 151.559 492.088 152.752 491.725C153.98 491.337 155.245 491.076 156.527 490.947C161.73 490.329 166.982 492.566 170.752 495.89C174.512 499.287 177.403 503.527 178.822 508.554C180.091 513.549 179.762 518.689 178.562 523.441C177.932 525.828 177.117 528.124 176.021 530.378L175.57 531.242L175.388 531.537L175.108 531.896C174.934 532.092 174.813 532.217 174.671 532.355C174.119 532.876 173.573 533.272 173.009 533.63C171.873 534.324 170.708 534.864 169.52 535.289C164.751 537.004 159.756 537.064 155.032 536.434C150.303 535.682 145.748 534.353 141.472 532.422C146.045 533.422 150.624 534.298 155.203 534.315C159.738 534.434 164.317 533.864 168.266 532.144C169.223 531.729 170.134 531.213 170.983 530.607C171.363 530.336 171.721 530.034 172.052 529.705L172.211 529.523C172.206 529.525 172.2 529.54 172.206 529.54C172.222 529.512 172.239 529.485 172.258 529.459L172.581 528.762C173.446 526.738 174.112 524.634 174.57 522.481C175.536 518.194 175.738 513.728 174.631 509.661C173.61 505.66 171.078 501.842 168.011 498.928C164.936 495.977 160.944 494.185 156.749 494.303C155.703 494.335 154.662 494.47 153.642 494.705C152.546 494.971 151.532 495.283 150.537 495.708C148.54 496.526 146.71 497.76 145.135 499.307C141.889 502.356 139.781 506.635 138.614 511.141C138.863 506.317 140.595 501.687 143.571 497.882C145.157 495.95 147.107 494.347 149.309 493.164Z" fill="#88658C"/>
<path d="M153.931 501.492C156.854 501.496 159.707 502.388 162.112 504.05C164.517 505.711 166.36 508.064 167.398 510.797C166.725 509.95 165.768 509.412 164.692 509.412C162.649 509.412 160.995 511.326 160.995 513.688C160.995 516.049 162.649 517.963 164.692 517.963C166.421 517.963 167.861 516.581 168.262 514.725C168.297 515.136 168.384 515.526 168.384 515.945C168.384 518.782 167.549 521.556 165.984 523.922C164.419 526.288 162.192 528.141 159.582 529.251C160.035 528.22 160.271 527.107 160.276 525.982C160.276 521.946 157.449 518.677 153.957 518.677C150.468 518.677 147.638 521.949 147.638 525.982C147.638 527.172 147.907 528.282 148.343 529.277C145.263 527.987 142.724 525.67 141.159 522.72C139.593 519.771 139.098 516.37 139.756 513.096C140.414 509.822 142.186 506.877 144.77 504.762C147.354 502.646 150.591 501.491 153.931 501.492Z" fill="#88658C"/>
</g>
<defs>
<clipPath id="clip0_259_1054">
<rect width="863" height="600" fill="white"/>
</clipPath>
</defs>
</svg>
