<svg width="30" height="26" viewBox="0 0 30 26" fill="none" xmlns="http://www.w3.org/2000/svg">
<path fill-rule="evenodd" clip-rule="evenodd" d="M21.0002 6C21.0002 9.31371 18.314 12 15.0002 12C11.6865 12 9.00024 9.31371 9.00024 6C9.00024 2.68629 11.6865 0 15.0002 0C18.314 0 21.0002 2.68629 21.0002 6ZM19.0002 6C19.0002 8.20914 17.2094 10 15.0002 10C12.7911 10 11.0002 8.20914 11.0002 6C11.0002 3.79086 12.7911 2 15.0002 2C17.2094 2 19.0002 3.79086 19.0002 6Z" fill="black"/>
<path d="M15.0002 15C8.52586 15 3.00952 18.8284 0.908203 24.192C1.4201 24.7004 1.95934 25.1812 2.52353 25.6321C4.08827 20.7077 8.99696 17 15.0002 17C21.0035 17 25.9122 20.7077 27.477 25.6321C28.0412 25.1812 28.5804 24.7004 29.0923 24.1921C26.991 18.8284 21.4746 15 15.0002 15Z" fill="black"/>
</svg>
