<!DOCTYPE svg PUBLIC "-//W3C//DTD SVG 1.1//EN" "http://www.w3.org/Graphics/SVG/1.1/DTD/svg11.dtd">
<!-- Uploaded to: SVG Repo, www.svgrepo.com, Transformed by: SVG Repo Mixer Tools -->
<svg fill="#000000" width="800px" height="800px" viewBox="0 0 256 256" id="Flat" xmlns="http://www.w3.org/2000/svg" stroke="#000000" stroke-width="7.68">
<g id="SVGRepo_bgCarrier" stroke-width="0"/>
<g id="SVGRepo_tracerCarrier" stroke-linecap="round" stroke-linejoin="round"/>
<g id="SVGRepo_iconCarrier"> <path d="M119.39062,172.93848a8.00028,8.00028,0,0,1-1.73339,8.71875l-32,32a8.00181,8.00181,0,0,1-11.31446,0l-32-32A8.00065,8.00065,0,0,1,48,168H72V48a8,8,0,0,1,16,0V168h24A8,8,0,0,1,119.39062,172.93848Zm94.26661-98.59571-32-32a8.00122,8.00122,0,0,0-11.31446,0l-32,32A8.00065,8.00065,0,0,0,144,88h24V208a8,8,0,0,0,16,0V88h24a8.00066,8.00066,0,0,0,5.65723-13.65723Z"/> </g>
</svg>